<mxfile host="app.diagrams.net" modified="2023-12-24T22:59:59.924Z" agent="Mozilla/5.0 (Windows NT 10.0; Win64; x64; rv:121.0) Gecko/20100101 Firefox/121.0" etag="Gc6GPXdl5_Xg2jEo3wjc" version="22.1.11" type="github">
  <diagram name="Page-1" id="2YBvvXClWsGukQMizWep">
    <mxGraphModel dx="1434" dy="754" grid="1" gridSize="10" guides="1" tooltips="1" connect="1" arrows="1" fold="1" page="1" pageScale="1" pageWidth="850" pageHeight="1100" math="0" shadow="0">
      <root>
        <mxCell id="0" />
        <mxCell id="1" parent="0" />
        <mxCell id="aM9ryv3xv72pqoxQDRHE-1" value=":user" style="shape=umlLifeline;perimeter=lifelinePerimeter;whiteSpace=wrap;html=1;container=0;dropTarget=0;collapsible=0;recursiveResize=0;outlineConnect=0;portConstraint=eastwest;newEdgeStyle={&quot;edgeStyle&quot;:&quot;elbowEdgeStyle&quot;,&quot;elbow&quot;:&quot;vertical&quot;,&quot;curved&quot;:0,&quot;rounded&quot;:0};fillColor=#ffe6cc;strokeColor=#FFFFFF;" parent="1" vertex="1">
          <mxGeometry x="40" y="40" width="100" height="680" as="geometry" />
        </mxCell>
        <mxCell id="aM9ryv3xv72pqoxQDRHE-2" value="" style="html=1;points=[];perimeter=orthogonalPerimeter;outlineConnect=0;targetShapes=umlLifeline;portConstraint=eastwest;newEdgeStyle={&quot;edgeStyle&quot;:&quot;elbowEdgeStyle&quot;,&quot;elbow&quot;:&quot;vertical&quot;,&quot;curved&quot;:0,&quot;rounded&quot;:0};" parent="aM9ryv3xv72pqoxQDRHE-1" vertex="1">
          <mxGeometry x="45" y="70" width="10" height="600" as="geometry" />
        </mxCell>
        <mxCell id="aM9ryv3xv72pqoxQDRHE-3" value="" style="html=1;verticalAlign=bottom;startArrow=oval;endArrow=block;startSize=8;edgeStyle=elbowEdgeStyle;elbow=vertical;curved=0;rounded=0;" parent="aM9ryv3xv72pqoxQDRHE-1" target="aM9ryv3xv72pqoxQDRHE-2" edge="1">
          <mxGeometry relative="1" as="geometry">
            <mxPoint x="-15" y="70" as="sourcePoint" />
          </mxGeometry>
        </mxCell>
        <mxCell id="aM9ryv3xv72pqoxQDRHE-5" value=":webpage" style="shape=umlLifeline;perimeter=lifelinePerimeter;whiteSpace=wrap;html=1;container=0;dropTarget=0;collapsible=0;recursiveResize=0;outlineConnect=0;portConstraint=eastwest;newEdgeStyle={&quot;edgeStyle&quot;:&quot;elbowEdgeStyle&quot;,&quot;elbow&quot;:&quot;vertical&quot;,&quot;curved&quot;:0,&quot;rounded&quot;:0};fillColor=#bac8d3;strokeColor=#FFFFFF;" parent="1" vertex="1">
          <mxGeometry x="260" y="40" width="100" height="680" as="geometry" />
        </mxCell>
        <mxCell id="aM9ryv3xv72pqoxQDRHE-6" value="" style="html=1;points=[];perimeter=orthogonalPerimeter;outlineConnect=0;targetShapes=umlLifeline;portConstraint=eastwest;newEdgeStyle={&quot;edgeStyle&quot;:&quot;elbowEdgeStyle&quot;,&quot;elbow&quot;:&quot;vertical&quot;,&quot;curved&quot;:0,&quot;rounded&quot;:0};" parent="aM9ryv3xv72pqoxQDRHE-5" vertex="1">
          <mxGeometry x="45" y="80" width="10" height="590" as="geometry" />
        </mxCell>
        <mxCell id="aM9ryv3xv72pqoxQDRHE-4" value="" style="html=1;points=[];perimeter=orthogonalPerimeter;outlineConnect=0;targetShapes=umlLifeline;portConstraint=eastwest;newEdgeStyle={&quot;edgeStyle&quot;:&quot;elbowEdgeStyle&quot;,&quot;elbow&quot;:&quot;vertical&quot;,&quot;curved&quot;:0,&quot;rounded&quot;:0};" parent="aM9ryv3xv72pqoxQDRHE-5" vertex="1">
          <mxGeometry x="50" y="100" width="10" height="260" as="geometry" />
        </mxCell>
        <mxCell id="15LjLsDy3cYjAC-HrqB1-10" value="" style="endArrow=classic;html=1;rounded=0;" edge="1" parent="aM9ryv3xv72pqoxQDRHE-5" target="aM9ryv3xv72pqoxQDRHE-4">
          <mxGeometry width="50" height="50" relative="1" as="geometry">
            <mxPoint x="70" y="100" as="sourcePoint" />
            <mxPoint x="110" y="100" as="targetPoint" />
            <Array as="points">
              <mxPoint x="60" y="100" />
              <mxPoint x="70" y="100" />
              <mxPoint x="80" y="100" />
              <mxPoint x="80" y="110" />
              <mxPoint x="70" y="110" />
            </Array>
          </mxGeometry>
        </mxCell>
        <mxCell id="15LjLsDy3cYjAC-HrqB1-38" value="" style="html=1;points=[];perimeter=orthogonalPerimeter;outlineConnect=0;targetShapes=umlLifeline;portConstraint=eastwest;newEdgeStyle={&quot;edgeStyle&quot;:&quot;elbowEdgeStyle&quot;,&quot;elbow&quot;:&quot;vertical&quot;,&quot;curved&quot;:0,&quot;rounded&quot;:0};" vertex="1" parent="aM9ryv3xv72pqoxQDRHE-5">
          <mxGeometry x="50" y="420" width="10" height="210" as="geometry" />
        </mxCell>
        <mxCell id="aM9ryv3xv72pqoxQDRHE-7" value="requestSignInForm()" style="html=1;verticalAlign=bottom;endArrow=block;edgeStyle=elbowEdgeStyle;elbow=vertical;curved=0;rounded=0;" parent="1" source="aM9ryv3xv72pqoxQDRHE-2" target="aM9ryv3xv72pqoxQDRHE-6" edge="1">
          <mxGeometry relative="1" as="geometry">
            <mxPoint x="195" y="130" as="sourcePoint" />
            <Array as="points">
              <mxPoint x="180" y="120" />
            </Array>
          </mxGeometry>
        </mxCell>
        <mxCell id="aM9ryv3xv72pqoxQDRHE-8" value="requestCourseName()" style="html=1;verticalAlign=bottom;endArrow=open;endSize=8;edgeStyle=elbowEdgeStyle;elbow=vertical;curved=0;rounded=0;" parent="1" source="aM9ryv3xv72pqoxQDRHE-4" target="aM9ryv3xv72pqoxQDRHE-2" edge="1">
          <mxGeometry x="-0.0016" relative="1" as="geometry">
            <mxPoint x="195" y="205" as="targetPoint" />
            <Array as="points">
              <mxPoint x="190" y="280" />
            </Array>
            <mxPoint as="offset" />
          </mxGeometry>
        </mxCell>
        <mxCell id="15LjLsDy3cYjAC-HrqB1-1" value=":backend" style="shape=umlLifeline;perimeter=lifelinePerimeter;whiteSpace=wrap;html=1;container=0;dropTarget=0;collapsible=0;recursiveResize=0;outlineConnect=0;portConstraint=eastwest;newEdgeStyle={&quot;edgeStyle&quot;:&quot;elbowEdgeStyle&quot;,&quot;elbow&quot;:&quot;vertical&quot;,&quot;curved&quot;:0,&quot;rounded&quot;:0};fillColor=#60a917;strokeColor=#FFFFFF;fontColor=#ffffff;" vertex="1" parent="1">
          <mxGeometry x="535" y="40" width="100" height="680" as="geometry" />
        </mxCell>
        <mxCell id="15LjLsDy3cYjAC-HrqB1-2" value="" style="html=1;points=[];perimeter=orthogonalPerimeter;outlineConnect=0;targetShapes=umlLifeline;portConstraint=eastwest;newEdgeStyle={&quot;edgeStyle&quot;:&quot;elbowEdgeStyle&quot;,&quot;elbow&quot;:&quot;vertical&quot;,&quot;curved&quot;:0,&quot;rounded&quot;:0};" vertex="1" parent="15LjLsDy3cYjAC-HrqB1-1">
          <mxGeometry x="45" y="140" width="10" height="480" as="geometry" />
        </mxCell>
        <mxCell id="15LjLsDy3cYjAC-HrqB1-11" value="openLoginForm()" style="text;html=1;align=center;verticalAlign=middle;resizable=0;points=[];autosize=1;strokeColor=none;fillColor=none;" vertex="1" parent="1">
          <mxGeometry x="340" y="128" width="120" height="30" as="geometry" />
        </mxCell>
        <mxCell id="15LjLsDy3cYjAC-HrqB1-12" style="edgeStyle=elbowEdgeStyle;rounded=0;orthogonalLoop=1;jettySize=auto;html=1;elbow=vertical;curved=0;" edge="1" parent="1" target="aM9ryv3xv72pqoxQDRHE-4">
          <mxGeometry relative="1" as="geometry">
            <mxPoint x="95" y="158" as="sourcePoint" />
            <mxPoint x="270" y="158" as="targetPoint" />
          </mxGeometry>
        </mxCell>
        <mxCell id="15LjLsDy3cYjAC-HrqB1-13" value="enterCredentials(username,password)" style="edgeLabel;html=1;align=center;verticalAlign=middle;resizable=0;points=[];" vertex="1" connectable="0" parent="15LjLsDy3cYjAC-HrqB1-12">
          <mxGeometry x="-0.1505" y="-1" relative="1" as="geometry">
            <mxPoint x="11" y="-16" as="offset" />
          </mxGeometry>
        </mxCell>
        <mxCell id="15LjLsDy3cYjAC-HrqB1-17" value="" style="edgeStyle=elbowEdgeStyle;rounded=0;orthogonalLoop=1;jettySize=auto;html=1;elbow=vertical;curved=0;" edge="1" parent="1">
          <mxGeometry relative="1" as="geometry">
            <mxPoint x="320" y="180.00267605633803" as="sourcePoint" />
            <mxPoint x="580" y="180.04761904761904" as="targetPoint" />
          </mxGeometry>
        </mxCell>
        <mxCell id="15LjLsDy3cYjAC-HrqB1-15" value="validateCredentials(username,password)" style="text;html=1;align=center;verticalAlign=middle;resizable=0;points=[];autosize=1;strokeColor=none;fillColor=none;fontSize=11;" vertex="1" parent="1">
          <mxGeometry x="350" y="158" width="220" height="30" as="geometry" />
        </mxCell>
        <mxCell id="15LjLsDy3cYjAC-HrqB1-20" value="" style="endArrow=classic;html=1;rounded=0;" edge="1" parent="1" target="15LjLsDy3cYjAC-HrqB1-2">
          <mxGeometry width="50" height="50" relative="1" as="geometry">
            <mxPoint x="600" y="188" as="sourcePoint" />
            <mxPoint x="590" y="198" as="targetPoint" />
            <Array as="points">
              <mxPoint x="590" y="188" />
              <mxPoint x="610" y="188" />
              <mxPoint x="610" y="198" />
              <mxPoint x="610" y="210" />
            </Array>
          </mxGeometry>
        </mxCell>
        <mxCell id="15LjLsDy3cYjAC-HrqB1-21" value="validate()" style="text;html=1;align=center;verticalAlign=middle;resizable=0;points=[];autosize=1;strokeColor=none;fillColor=none;" vertex="1" parent="1">
          <mxGeometry x="600" y="180" width="70" height="30" as="geometry" />
        </mxCell>
        <mxCell id="15LjLsDy3cYjAC-HrqB1-22" style="edgeStyle=elbowEdgeStyle;rounded=0;orthogonalLoop=1;jettySize=auto;html=1;elbow=vertical;curved=0;dashed=1;" edge="1" parent="1">
          <mxGeometry relative="1" as="geometry">
            <mxPoint x="580" y="250" as="sourcePoint" />
            <mxPoint x="320" y="250" as="targetPoint" />
          </mxGeometry>
        </mxCell>
        <mxCell id="15LjLsDy3cYjAC-HrqB1-24" value="accountCreatedSuccessfully(account)" style="edgeLabel;html=1;align=center;verticalAlign=middle;resizable=0;points=[];" vertex="1" connectable="0" parent="15LjLsDy3cYjAC-HrqB1-22">
          <mxGeometry x="0.0558" y="3" relative="1" as="geometry">
            <mxPoint x="8" y="-5" as="offset" />
          </mxGeometry>
        </mxCell>
        <mxCell id="15LjLsDy3cYjAC-HrqB1-23" value="&lt;font style=&quot;font-size: 10px;&quot;&gt;Alt [validation succeeded]&lt;/font&gt;" style="text;html=1;align=center;verticalAlign=middle;resizable=0;points=[];autosize=1;strokeColor=none;fillColor=none;labelBackgroundColor=default;" vertex="1" parent="1">
          <mxGeometry x="510" y="210" width="150" height="30" as="geometry" />
        </mxCell>
        <mxCell id="15LjLsDy3cYjAC-HrqB1-25" style="edgeStyle=elbowEdgeStyle;rounded=0;orthogonalLoop=1;jettySize=auto;html=1;elbow=horizontal;curved=0;dashed=1;" edge="1" parent="1">
          <mxGeometry relative="1" as="geometry">
            <mxPoint x="95" y="319.99758620689664" as="sourcePoint" />
            <mxPoint x="310" y="319.99758620689664" as="targetPoint" />
          </mxGeometry>
        </mxCell>
        <mxCell id="15LjLsDy3cYjAC-HrqB1-26" value="respondCourseName(course)" style="text;html=1;align=center;verticalAlign=middle;resizable=0;points=[];autosize=1;strokeColor=none;fillColor=none;" vertex="1" parent="1">
          <mxGeometry x="108" y="295" width="190" height="30" as="geometry" />
        </mxCell>
        <mxCell id="15LjLsDy3cYjAC-HrqB1-27" style="edgeStyle=elbowEdgeStyle;rounded=0;orthogonalLoop=1;jettySize=auto;html=1;elbow=vertical;curved=0;" edge="1" parent="1">
          <mxGeometry relative="1" as="geometry">
            <mxPoint x="320" y="329.99758620689664" as="sourcePoint" />
            <mxPoint x="579.9999999999998" y="329.99758620689664" as="targetPoint" />
          </mxGeometry>
        </mxCell>
        <mxCell id="15LjLsDy3cYjAC-HrqB1-28" value="setCourseOfUser(account,course)" style="text;html=1;align=center;verticalAlign=middle;resizable=0;points=[];autosize=1;strokeColor=none;fillColor=none;" vertex="1" parent="1">
          <mxGeometry x="350" y="304" width="210" height="30" as="geometry" />
        </mxCell>
        <mxCell id="15LjLsDy3cYjAC-HrqB1-29" value="" style="endArrow=classic;html=1;rounded=0;" edge="1" parent="1">
          <mxGeometry width="50" height="50" relative="1" as="geometry">
            <mxPoint x="600" y="333" as="sourcePoint" />
            <mxPoint x="590" y="355" as="targetPoint" />
            <Array as="points">
              <mxPoint x="590" y="333" />
              <mxPoint x="610" y="333" />
              <mxPoint x="610" y="343" />
              <mxPoint x="610" y="355" />
            </Array>
          </mxGeometry>
        </mxCell>
        <mxCell id="15LjLsDy3cYjAC-HrqB1-30" value="validate()" style="text;html=1;align=center;verticalAlign=middle;resizable=0;points=[];autosize=1;strokeColor=none;fillColor=none;" vertex="1" parent="1">
          <mxGeometry x="600" y="325" width="70" height="30" as="geometry" />
        </mxCell>
        <mxCell id="15LjLsDy3cYjAC-HrqB1-33" style="edgeStyle=elbowEdgeStyle;rounded=0;orthogonalLoop=1;jettySize=auto;html=1;elbow=vertical;curved=0;dashed=1;" edge="1" parent="1">
          <mxGeometry relative="1" as="geometry">
            <mxPoint x="578.9999999999998" y="380.344827586207" as="sourcePoint" />
            <mxPoint x="319" y="380" as="targetPoint" />
          </mxGeometry>
        </mxCell>
        <mxCell id="15LjLsDy3cYjAC-HrqB1-34" value="courseSetSuccessfully()" style="text;html=1;align=center;verticalAlign=middle;resizable=0;points=[];autosize=1;strokeColor=none;fillColor=none;" vertex="1" parent="1">
          <mxGeometry x="375" y="350" width="160" height="30" as="geometry" />
        </mxCell>
        <mxCell id="15LjLsDy3cYjAC-HrqB1-36" style="edgeStyle=elbowEdgeStyle;rounded=0;orthogonalLoop=1;jettySize=auto;html=1;elbow=vertical;curved=0;dashed=1;" edge="1" parent="1">
          <mxGeometry relative="1" as="geometry">
            <mxPoint x="313.15" y="399.99999999999994" as="sourcePoint" />
            <mxPoint x="92.85000000000005" y="399.99999999999994" as="targetPoint" />
          </mxGeometry>
        </mxCell>
        <mxCell id="15LjLsDy3cYjAC-HrqB1-37" value="&amp;lt;&amp;lt;registration completed&amp;gt;&amp;gt;" style="text;html=1;align=center;verticalAlign=middle;resizable=0;points=[];autosize=1;strokeColor=none;fillColor=none;" vertex="1" parent="1">
          <mxGeometry x="118" y="374" width="170" height="30" as="geometry" />
        </mxCell>
        <mxCell id="15LjLsDy3cYjAC-HrqB1-39" style="edgeStyle=elbowEdgeStyle;rounded=0;orthogonalLoop=1;jettySize=auto;html=1;elbow=vertical;curved=0;" edge="1" parent="1" source="aM9ryv3xv72pqoxQDRHE-2" target="15LjLsDy3cYjAC-HrqB1-38">
          <mxGeometry relative="1" as="geometry">
            <Array as="points">
              <mxPoint x="220" y="460" />
            </Array>
          </mxGeometry>
        </mxCell>
        <mxCell id="15LjLsDy3cYjAC-HrqB1-40" value="requestAccountManagementPage()" style="text;html=1;align=center;verticalAlign=middle;resizable=0;points=[];autosize=1;strokeColor=none;fillColor=none;fontSize=10;" vertex="1" parent="1">
          <mxGeometry x="105" y="436" width="190" height="30" as="geometry" />
        </mxCell>
        <mxCell id="15LjLsDy3cYjAC-HrqB1-41" value="" style="endArrow=classic;html=1;rounded=0;" edge="1" parent="1">
          <mxGeometry width="50" height="50" relative="1" as="geometry">
            <mxPoint x="330" y="462" as="sourcePoint" />
            <mxPoint x="320" y="472" as="targetPoint" />
            <Array as="points">
              <mxPoint x="320" y="462" />
              <mxPoint x="330" y="462" />
              <mxPoint x="340" y="462" />
              <mxPoint x="340" y="472" />
              <mxPoint x="330" y="472" />
            </Array>
          </mxGeometry>
        </mxCell>
        <mxCell id="15LjLsDy3cYjAC-HrqB1-42" value="&lt;font style=&quot;font-size: 11px;&quot;&gt;openAccountManagementPage()&lt;/font&gt;" style="text;html=1;align=center;verticalAlign=middle;resizable=0;points=[];autosize=1;strokeColor=none;fillColor=none;" vertex="1" parent="1">
          <mxGeometry x="340" y="450" width="180" height="30" as="geometry" />
        </mxCell>
        <mxCell id="15LjLsDy3cYjAC-HrqB1-44" value="opt" style="shape=umlFrame;whiteSpace=wrap;html=1;pointerEvents=0;recursiveResize=0;container=1;collapsible=0;width=40;height=20;fillColor=#fa6800;fontColor=#000000;strokeColor=#C73500;" vertex="1" parent="1">
          <mxGeometry x="70" y="420" width="610" height="260" as="geometry" />
        </mxCell>
        <mxCell id="15LjLsDy3cYjAC-HrqB1-47" value="updateProfilePicture(picture)" style="text;html=1;align=center;verticalAlign=middle;resizable=0;points=[];autosize=1;strokeColor=none;fillColor=none;" vertex="1" parent="15LjLsDy3cYjAC-HrqB1-44">
          <mxGeometry x="40" y="46" width="180" height="30" as="geometry" />
        </mxCell>
        <mxCell id="15LjLsDy3cYjAC-HrqB1-48" style="edgeStyle=elbowEdgeStyle;rounded=0;orthogonalLoop=1;jettySize=auto;html=1;elbow=vertical;curved=0;" edge="1" parent="15LjLsDy3cYjAC-HrqB1-44">
          <mxGeometry relative="1" as="geometry">
            <mxPoint x="25.5" y="109.73948717948713" as="sourcePoint" />
            <mxPoint x="240.5" y="109.73948717948713" as="targetPoint" />
          </mxGeometry>
        </mxCell>
        <mxCell id="15LjLsDy3cYjAC-HrqB1-49" value="updateAge(age)" style="text;html=1;align=center;verticalAlign=middle;resizable=0;points=[];autosize=1;strokeColor=none;fillColor=none;" vertex="1" parent="15LjLsDy3cYjAC-HrqB1-44">
          <mxGeometry x="76" y="80" width="110" height="30" as="geometry" />
        </mxCell>
        <mxCell id="15LjLsDy3cYjAC-HrqB1-51" style="edgeStyle=elbowEdgeStyle;rounded=0;orthogonalLoop=1;jettySize=auto;html=1;elbow=vertical;curved=0;" edge="1" parent="15LjLsDy3cYjAC-HrqB1-44">
          <mxGeometry relative="1" as="geometry">
            <mxPoint x="25" y="149.99948717948723" as="sourcePoint" />
            <mxPoint x="240" y="149.99948717948723" as="targetPoint" />
          </mxGeometry>
        </mxCell>
        <mxCell id="15LjLsDy3cYjAC-HrqB1-52" value="updateDescription(description)" style="text;html=1;align=center;verticalAlign=middle;resizable=0;points=[];autosize=1;strokeColor=none;fillColor=none;" vertex="1" parent="15LjLsDy3cYjAC-HrqB1-44">
          <mxGeometry x="36" y="120" width="190" height="30" as="geometry" />
        </mxCell>
        <mxCell id="15LjLsDy3cYjAC-HrqB1-53" style="edgeStyle=elbowEdgeStyle;rounded=0;orthogonalLoop=1;jettySize=auto;html=1;elbow=vertical;curved=0;" edge="1" parent="15LjLsDy3cYjAC-HrqB1-44">
          <mxGeometry relative="1" as="geometry">
            <mxPoint x="250" y="159.99666666666678" as="sourcePoint" />
            <mxPoint x="510" y="159.99666666666678" as="targetPoint" />
          </mxGeometry>
        </mxCell>
        <mxCell id="15LjLsDy3cYjAC-HrqB1-55" value="" style="endArrow=classic;html=1;rounded=0;" edge="1" parent="15LjLsDy3cYjAC-HrqB1-44">
          <mxGeometry width="50" height="50" relative="1" as="geometry">
            <mxPoint x="530" y="168" as="sourcePoint" />
            <mxPoint x="520" y="190" as="targetPoint" />
            <Array as="points">
              <mxPoint x="520" y="168" />
              <mxPoint x="540" y="168" />
              <mxPoint x="540" y="178" />
              <mxPoint x="540" y="190" />
            </Array>
          </mxGeometry>
        </mxCell>
        <mxCell id="15LjLsDy3cYjAC-HrqB1-56" value="validate()" style="text;html=1;align=center;verticalAlign=middle;resizable=0;points=[];autosize=1;strokeColor=none;fillColor=none;" vertex="1" parent="15LjLsDy3cYjAC-HrqB1-44">
          <mxGeometry x="540" y="165" width="70" height="30" as="geometry" />
        </mxCell>
        <mxCell id="15LjLsDy3cYjAC-HrqB1-57" value="&lt;font style=&quot;font-size: 10px;&quot;&gt;Alt [validation succeeded]&lt;/font&gt;" style="text;html=1;align=center;verticalAlign=middle;resizable=0;points=[];autosize=1;strokeColor=none;fillColor=none;labelBackgroundColor=default;" vertex="1" parent="15LjLsDy3cYjAC-HrqB1-44">
          <mxGeometry x="440" y="195" width="150" height="30" as="geometry" />
        </mxCell>
        <mxCell id="15LjLsDy3cYjAC-HrqB1-59" style="edgeStyle=elbowEdgeStyle;rounded=0;orthogonalLoop=1;jettySize=auto;html=1;elbow=vertical;curved=0;" edge="1" parent="15LjLsDy3cYjAC-HrqB1-44">
          <mxGeometry relative="1" as="geometry">
            <mxPoint x="508.9999999999998" y="240" as="sourcePoint" />
            <mxPoint x="249" y="240" as="targetPoint" />
          </mxGeometry>
        </mxCell>
        <mxCell id="15LjLsDy3cYjAC-HrqB1-54" value="&lt;font style=&quot;font-size: 11px;&quot;&gt;updateProfile(account,picture,age,description)&lt;/font&gt;" style="text;html=1;align=center;verticalAlign=middle;resizable=0;points=[];autosize=1;strokeColor=none;fillColor=none;" vertex="1" parent="15LjLsDy3cYjAC-HrqB1-44">
          <mxGeometry x="254" y="130" width="250" height="30" as="geometry" />
        </mxCell>
        <mxCell id="15LjLsDy3cYjAC-HrqB1-60" style="edgeStyle=elbowEdgeStyle;rounded=0;orthogonalLoop=1;jettySize=auto;html=1;elbow=vertical;curved=0;dashed=1;" edge="1" parent="15LjLsDy3cYjAC-HrqB1-44" source="15LjLsDy3cYjAC-HrqB1-38">
          <mxGeometry relative="1" as="geometry">
            <mxPoint x="238.5" y="249.99952380952368" as="sourcePoint" />
            <mxPoint x="23.5" y="249.99952380952368" as="targetPoint" />
          </mxGeometry>
        </mxCell>
        <mxCell id="15LjLsDy3cYjAC-HrqB1-46" style="edgeStyle=elbowEdgeStyle;rounded=0;orthogonalLoop=1;jettySize=auto;html=1;elbow=vertical;curved=0;" edge="1" parent="1" source="aM9ryv3xv72pqoxQDRHE-2" target="15LjLsDy3cYjAC-HrqB1-38">
          <mxGeometry relative="1" as="geometry">
            <Array as="points">
              <mxPoint x="210" y="490" />
            </Array>
          </mxGeometry>
        </mxCell>
        <mxCell id="15LjLsDy3cYjAC-HrqB1-50" style="edgeStyle=elbowEdgeStyle;rounded=0;orthogonalLoop=1;jettySize=auto;html=1;elbow=vertical;curved=0;" edge="1" parent="1" source="aM9ryv3xv72pqoxQDRHE-2" target="15LjLsDy3cYjAC-HrqB1-38">
          <mxGeometry relative="1" as="geometry">
            <mxPoint x="93.5" y="560.0794871794873" as="sourcePoint" />
            <mxPoint x="308.5" y="560.0794871794873" as="targetPoint" />
            <Array as="points">
              <mxPoint x="320" y="560" />
            </Array>
          </mxGeometry>
        </mxCell>
        <mxCell id="15LjLsDy3cYjAC-HrqB1-61" value="&amp;lt;&amp;lt;Profile updated successfully&amp;gt;&amp;gt;" style="text;html=1;align=center;verticalAlign=middle;resizable=0;points=[];autosize=1;strokeColor=none;fillColor=none;" vertex="1" parent="1">
          <mxGeometry x="96" y="646" width="210" height="30" as="geometry" />
        </mxCell>
      </root>
    </mxGraphModel>
  </diagram>
</mxfile>
